{
	"asset":{
		"generator":"Khronos glTF Blender I/O v4.2.70",
		"version":"2.0"
	},
	"extensionsUsed":[
		"KHR_materials_specular",
		"KHR_materials_ior"
	],
	"scene":0,
	"scenes":[
		{
			"name":"Scene",
			"nodes":[
				0
			]
		}
	],
	"nodes":[
		{
			"mesh":0,
			"name":"MENOCLONE TEE",
			"rotation":[
				0.70710688829422,
				0,
				0,
				0.7071066498756409
			],
			"scale":[
				0.04061722755432129,
				0.04061722755432129,
				0.04061722755432129
			],
			"translation":[
				0.19913265109062195,
				1.8147456645965576,
				0.8951629996299744
			]
		}
	],
	"animations":[
		{
			"channels":[
				{
					"sampler":0,
					"target":{
						"node":0,
						"path":"rotation"
					}
				}
			],
			"name":"Pattern2D_6779Action",
			"samplers":[
				{
					"input":5,
					"interpolation":"LINEAR",
					"output":6
				}
			]
		}
	],
	"materials":[
		{
			"doubleSided":true,
			"extensions":{
				"KHR_materials_specular":{
					"specularColorFactor":[
						2.0,
						2.0,
						2.0
					]
				},
				"KHR_materials_ior":{
					"ior":1.4500000476837158
				}
			},
			"name":"1",
			"normalTexture":{
				"index":0,
				"scale":0.5000001192092896
			},
			"pbrMetallicRoughness":{
				"baseColorTexture":{
					"index":1
				},
				"metallicFactor":0,
				"roughnessFactor":0.9651968479156494
			}
		}
	],
	"meshes":[
		{
			"name":"1",
			"primitives":[
				{
					"attributes":{
						"POSITION":0,
						"NORMAL":1,
						"TEXCOORD_0":2,
						"TEXCOORD_1":3
					},
					"indices":4,
					"material":0
				}
			]
		}
	],
	"textures":[
		{
			"sampler":0,
			"source":0
		},
		{
			"sampler":0,
			"source":1
		}
	],
	"images":[
		{
			"mimeType":"image/png",
			"name":"FBX_normal",
			"uri":"FBX_normal.png"
		},
		{
			"mimeType":"image/png",
			"name":"tshirt design white",
			"uri":"tshirt%20design%20white.png"
		}
	],
	"accessors":[
		{
			"bufferView":0,
			"componentType":5126,
			"count":83583,
			"max":[
				36.5545539855957,
				21.337547302246094,
				41.03449249267578
			],
			"min":[
				-36.43455123901367,
				-16.684452056884766,
				-39.033050537109375
			],
			"type":"VEC3"
		},
		{
			"bufferView":1,
			"componentType":5126,
			"count":83583,
			"type":"VEC3"
		},
		{
			"bufferView":2,
			"componentType":5126,
			"count":83583,
			"type":"VEC2"
		},
		{
			"bufferView":3,
			"componentType":5126,
			"count":83583,
			"type":"VEC2"
		},
		{
			"bufferView":4,
			"componentType":5125,
			"count":489381,
			"type":"SCALAR"
		},
		{
			"bufferView":5,
			"componentType":5126,
			"count":251,
			"max":[
				8.333333333333334
			],
			"min":[
				0
			],
			"type":"SCALAR"
		},
		{
			"bufferView":6,
			"componentType":5126,
			"count":251,
			"type":"VEC4"
		}
	],
	"bufferViews":[
		{
			"buffer":0,
			"byteLength":1002996,
			"byteOffset":0,
			"target":34962
		},
		{
			"buffer":0,
			"byteLength":1002996,
			"byteOffset":1002996,
			"target":34962
		},
		{
			"buffer":0,
			"byteLength":668664,
			"byteOffset":2005992,
			"target":34962
		},
		{
			"buffer":0,
			"byteLength":668664,
			"byteOffset":2674656,
			"target":34962
		},
		{
			"buffer":0,
			"byteLength":1957524,
			"byteOffset":3343320,
			"target":34963
		},
		{
			"buffer":0,
			"byteLength":1004,
			"byteOffset":5300844
		},
		{
			"buffer":0,
			"byteLength":4016,
			"byteOffset":5301848
		}
	],
	"samplers":[
		{
			"magFilter":9729,
			"minFilter":9987
		}
	],
	"buffers":[
		{
			"byteLength":5305864,
			"uri":"ufo%20tee.bin"
		}
	]
}
